<?xml version="1.0" encoding="UTF-8" standalone="no"?>
<!DOCTYPE svg PUBLIC "-//W3C//DTD SVG 1.1//EN"
 "http://www.w3.org/Graphics/SVG/1.1/DTD/svg11.dtd">
<!-- Generated by graphviz version 2.38.0 (20140413.2041)
 -->
<!-- Title: G Pages: 1 -->
<svg width="226pt" height="188pt"
 viewBox="0.00 0.00 225.77 188.00" xmlns="http://www.w3.org/2000/svg" xmlns:xlink="http://www.w3.org/1999/xlink">
<g id="graph0" class="graph" transform="scale(1 1) rotate(0) translate(4 184)">
<title>G</title>
<polygon fill="white" stroke="none" points="-4,4 -4,-184 221.766,-184 221.766,4 -4,4"/>
<!-- start -->
<g id="node1" class="node"><title>start</title>
<polygon fill="none" stroke="black" points="36.7663,-108 0.232233,-90 36.7663,-72 73.3003,-90 36.7663,-108"/>
<polyline fill="none" stroke="black" points="10.9966,-95.3035 10.9966,-84.6965 "/>
<polyline fill="none" stroke="black" points="26.0019,-77.3035 47.5307,-77.3035 "/>
<polyline fill="none" stroke="black" points="62.5359,-84.6965 62.5359,-95.3035 "/>
<polyline fill="none" stroke="black" points="47.5307,-102.696 26.0019,-102.696 "/>
<text text-anchor="middle" x="36.7663" y="-86.3" font-family="Times,serif" font-size="14.00">start</text>
</g>
<!-- a0 -->
<g id="node2" class="node"><title>a0</title>
<ellipse fill="none" stroke="black" cx="113.766" cy="-18" rx="27" ry="18"/>
<text text-anchor="middle" x="113.766" y="-14.3" font-family="Times,serif" font-size="14.00">a0</text>
</g>
<!-- start&#45;&gt;a0 -->
<g id="edge1" class="edge"><title>start&#45;&gt;a0</title>
<path fill="none" stroke="black" d="M49.1377,-77.7533C60.3675,-67.5444 77.2128,-52.2305 90.89,-39.7966"/>
<polygon fill="black" stroke="black" points="93.4654,-42.1855 98.5104,-32.869 88.7566,-37.0059 93.4654,-42.1855"/>
</g>
<!-- b0 -->
<g id="node3" class="node"><title>b0</title>
<ellipse fill="none" stroke="black" cx="36.7663" cy="-18" rx="27" ry="18"/>
<text text-anchor="middle" x="36.7663" y="-14.3" font-family="Times,serif" font-size="14.00">b0</text>
</g>
<!-- start&#45;&gt;b0 -->
<g id="edge2" class="edge"><title>start&#45;&gt;b0</title>
<path fill="none" stroke="black" d="M36.7663,-71.6966C36.7663,-63.9827 36.7663,-54.7125 36.7663,-46.1124"/>
<polygon fill="black" stroke="black" points="40.2664,-46.1043 36.7663,-36.1043 33.2664,-46.1044 40.2664,-46.1043"/>
</g>
<!-- a1 -->
<g id="node4" class="node"><title>a1</title>
<ellipse fill="none" stroke="black" cx="190.766" cy="-162" rx="27" ry="18"/>
<text text-anchor="middle" x="190.766" y="-158.3" font-family="Times,serif" font-size="14.00">a1</text>
</g>
<!-- b3 -->
<g id="node5" class="node"><title>b3</title>
<ellipse fill="none" stroke="black" cx="190.766" cy="-90" rx="27" ry="18"/>
<text text-anchor="middle" x="190.766" y="-86.3" font-family="Times,serif" font-size="14.00">b3</text>
</g>
<!-- a1&#45;&gt;b3 -->
<g id="edge3" class="edge"><title>a1&#45;&gt;b3</title>
<path fill="none" stroke="black" d="M190.766,-143.697C190.766,-135.983 190.766,-126.712 190.766,-118.112"/>
<polygon fill="black" stroke="black" points="194.266,-118.104 190.766,-108.104 187.266,-118.104 194.266,-118.104"/>
</g>
<!-- end -->
<g id="node8" class="node"><title>end</title>
<polygon fill="none" stroke="black" points="201.766,-36 165.766,-36 165.766,-0 201.766,-0 201.766,-36"/>
<polyline fill="none" stroke="black" points="177.766,-36 165.766,-24 "/>
<polyline fill="none" stroke="black" points="165.766,-12 177.766,-0 "/>
<polyline fill="none" stroke="black" points="189.766,-0 201.766,-12 "/>
<polyline fill="none" stroke="black" points="201.766,-24 189.766,-36 "/>
<text text-anchor="middle" x="183.766" y="-14.3" font-family="Times,serif" font-size="14.00">end</text>
</g>
<!-- b3&#45;&gt;end -->
<g id="edge7" class="edge"><title>b3&#45;&gt;end</title>
<path fill="none" stroke="black" d="M189.036,-71.6966C188.265,-63.9827 187.338,-54.7125 186.478,-46.1124"/>
<polygon fill="black" stroke="black" points="189.954,-45.7064 185.477,-36.1043 182.989,-46.403 189.954,-45.7064"/>
</g>
<!-- b2 -->
<g id="node6" class="node"><title>b2</title>
<ellipse fill="none" stroke="black" cx="118.766" cy="-162" rx="27" ry="18"/>
<text text-anchor="middle" x="118.766" y="-158.3" font-family="Times,serif" font-size="14.00">b2</text>
</g>
<!-- a3 -->
<g id="node7" class="node"><title>a3</title>
<ellipse fill="none" stroke="black" cx="118.766" cy="-90" rx="27" ry="18"/>
<text text-anchor="middle" x="118.766" y="-86.3" font-family="Times,serif" font-size="14.00">a3</text>
</g>
<!-- b2&#45;&gt;a3 -->
<g id="edge4" class="edge"><title>b2&#45;&gt;a3</title>
<path fill="none" stroke="black" d="M118.766,-143.697C118.766,-135.983 118.766,-126.712 118.766,-118.112"/>
<polygon fill="black" stroke="black" points="122.266,-118.104 118.766,-108.104 115.266,-118.104 122.266,-118.104"/>
</g>
<!-- a3&#45;&gt;a0 -->
<g id="edge5" class="edge"><title>a3&#45;&gt;a0</title>
<path fill="none" stroke="black" d="M117.53,-71.6966C116.979,-63.9827 116.317,-54.7125 115.703,-46.1124"/>
<polygon fill="black" stroke="black" points="119.192,-45.8295 114.988,-36.1043 112.209,-46.3283 119.192,-45.8295"/>
</g>
<!-- a3&#45;&gt;end -->
<g id="edge6" class="edge"><title>a3&#45;&gt;end</title>
<path fill="none" stroke="black" d="M132.551,-74.1548C140.807,-65.2642 151.506,-53.7416 160.989,-43.529"/>
<polygon fill="black" stroke="black" points="163.704,-45.7496 167.943,-36.04 158.574,-40.9864 163.704,-45.7496"/>
</g>
</g>
</svg>
